<mxfile host="app.diagrams.net" modified="2020-12-23T13:05:01.040Z" agent="5.0 (Windows NT 10.0; Win64; x64) AppleWebKit/537.36 (KHTML, like Gecko) Chrome/87.0.4280.88 Safari/537.36" etag="JKYJXvKubYespjO6dzv3" version="14.0.1" type="github">
  <diagram id="1P_7CGf5NRen447fJ8HE" name="Page-1">
    <mxGraphModel dx="1865" dy="492" grid="1" gridSize="10" guides="1" tooltips="1" connect="1" arrows="1" fold="1" page="1" pageScale="1" pageWidth="827" pageHeight="1169" math="0" shadow="0">
      <root>
        <mxCell id="0" />
        <mxCell id="1" parent="0" />
        <mxCell id="NniAMcF-AqxOJK8e0dRN-1" value="&lt;font style=&quot;font-size: 14px&quot;&gt;第一期-2020.12.10&lt;/font&gt;" style="text;html=1;strokeColor=none;fillColor=none;align=center;verticalAlign=middle;whiteSpace=wrap;rounded=0;" parent="1" vertex="1">
          <mxGeometry x="50" y="40" width="140" height="20" as="geometry" />
        </mxCell>
        <mxCell id="NniAMcF-AqxOJK8e0dRN-33" value="" style="group" parent="1" vertex="1" connectable="0">
          <mxGeometry x="-140" y="70" width="540" height="340" as="geometry" />
        </mxCell>
        <mxCell id="NniAMcF-AqxOJK8e0dRN-2" value="" style="rounded=0;whiteSpace=wrap;html=1;" parent="NniAMcF-AqxOJK8e0dRN-33" vertex="1">
          <mxGeometry y="28.33333333333333" width="539.9999999999999" height="311.66666666666663" as="geometry" />
        </mxCell>
        <mxCell id="NniAMcF-AqxOJK8e0dRN-3" value="" style="rounded=0;whiteSpace=wrap;html=1;" parent="NniAMcF-AqxOJK8e0dRN-33" vertex="1">
          <mxGeometry width="539.9999999999999" height="28.33333333333333" as="geometry" />
        </mxCell>
        <mxCell id="NniAMcF-AqxOJK8e0dRN-10" value="" style="verticalLabelPosition=bottom;verticalAlign=top;html=1;shape=mxgraph.basic.x" parent="NniAMcF-AqxOJK8e0dRN-33" vertex="1">
          <mxGeometry x="519.2307692307692" y="7.083333333333332" width="13.846153846153843" height="14.166666666666664" as="geometry" />
        </mxCell>
        <mxCell id="NniAMcF-AqxOJK8e0dRN-12" value="" style="verticalLabelPosition=bottom;verticalAlign=top;html=1;shape=mxgraph.basic.rect;fillColor2=none;strokeWidth=1;size=20;indent=5;" parent="NniAMcF-AqxOJK8e0dRN-33" vertex="1">
          <mxGeometry x="498.4615384615384" y="7.083333333333332" width="13.846153846153843" height="14.166666666666664" as="geometry" />
        </mxCell>
        <mxCell id="NniAMcF-AqxOJK8e0dRN-15" value="" style="endArrow=none;html=1;" parent="NniAMcF-AqxOJK8e0dRN-33" edge="1">
          <mxGeometry width="50" height="50" relative="1" as="geometry">
            <mxPoint x="476.30769230769226" y="14.166666666666664" as="sourcePoint" />
            <mxPoint x="490.15384615384613" y="14.166666666666664" as="targetPoint" />
          </mxGeometry>
        </mxCell>
        <mxCell id="NniAMcF-AqxOJK8e0dRN-18" value="&lt;font style=&quot;font-size: 11px&quot;&gt;相册组工具集&lt;/font&gt;" style="text;html=1;strokeColor=none;fillColor=none;align=center;verticalAlign=middle;whiteSpace=wrap;rounded=0;" parent="NniAMcF-AqxOJK8e0dRN-33" vertex="1">
          <mxGeometry x="24.54" width="77.85" height="28.33" as="geometry" />
        </mxCell>
        <mxCell id="NniAMcF-AqxOJK8e0dRN-21" value="File" style="text;html=1;strokeColor=none;fillColor=none;align=center;verticalAlign=middle;whiteSpace=wrap;rounded=0;" parent="NniAMcF-AqxOJK8e0dRN-33" vertex="1">
          <mxGeometry y="28.33333333333333" width="55.38461538461537" height="28.33333333333333" as="geometry" />
        </mxCell>
        <mxCell id="NniAMcF-AqxOJK8e0dRN-22" value="About" style="text;html=1;strokeColor=none;fillColor=none;align=center;verticalAlign=middle;whiteSpace=wrap;rounded=0;" parent="NniAMcF-AqxOJK8e0dRN-33" vertex="1">
          <mxGeometry x="53.99999999999999" y="28.33333333333333" width="55.38461538461537" height="28.33333333333333" as="geometry" />
        </mxCell>
        <mxCell id="NniAMcF-AqxOJK8e0dRN-34" value="内存" style="rounded=0;whiteSpace=wrap;html=1;" parent="NniAMcF-AqxOJK8e0dRN-33" vertex="1">
          <mxGeometry x="10.000000000000002" y="56.67" width="40" height="20" as="geometry" />
        </mxCell>
        <mxCell id="NniAMcF-AqxOJK8e0dRN-35" value="流畅度" style="rounded=0;whiteSpace=wrap;html=1;" parent="NniAMcF-AqxOJK8e0dRN-33" vertex="1">
          <mxGeometry x="50" y="56.67" width="44" height="20" as="geometry" />
        </mxCell>
        <mxCell id="NniAMcF-AqxOJK8e0dRN-37" value="" style="rounded=0;whiteSpace=wrap;html=1;" parent="NniAMcF-AqxOJK8e0dRN-33" vertex="1">
          <mxGeometry x="420" y="28.33" width="120" height="311.67" as="geometry" />
        </mxCell>
        <mxCell id="NniAMcF-AqxOJK8e0dRN-39" value="设备列表" style="text;html=1;strokeColor=none;fillColor=none;align=center;verticalAlign=middle;whiteSpace=wrap;rounded=0;" parent="NniAMcF-AqxOJK8e0dRN-33" vertex="1">
          <mxGeometry x="430" y="36.67" width="62" height="20" as="geometry" />
        </mxCell>
        <mxCell id="NniAMcF-AqxOJK8e0dRN-41" value="日志" style="rounded=0;whiteSpace=wrap;html=1;" parent="NniAMcF-AqxOJK8e0dRN-33" vertex="1">
          <mxGeometry x="150" y="56.67" width="56.31" height="20" as="geometry" />
        </mxCell>
        <mxCell id="NniAMcF-AqxOJK8e0dRN-42" value="" style="rounded=0;whiteSpace=wrap;html=1;" parent="NniAMcF-AqxOJK8e0dRN-33" vertex="1">
          <mxGeometry x="501.53999999999996" y="40.010000000000005" width="17.69" height="13.33" as="geometry" />
        </mxCell>
        <mxCell id="NniAMcF-AqxOJK8e0dRN-46" value="adjj234234" style="text;html=1;strokeColor=none;fillColor=none;align=center;verticalAlign=middle;whiteSpace=wrap;rounded=0;" parent="NniAMcF-AqxOJK8e0dRN-33" vertex="1">
          <mxGeometry x="420" y="60" width="120" height="20" as="geometry" />
        </mxCell>
        <mxCell id="NniAMcF-AqxOJK8e0dRN-47" value="234dfsdfg" style="text;html=1;strokeColor=none;fillColor=none;align=center;verticalAlign=middle;whiteSpace=wrap;rounded=0;" parent="NniAMcF-AqxOJK8e0dRN-33" vertex="1">
          <mxGeometry x="420" y="80" width="120" height="20" as="geometry" />
        </mxCell>
        <mxCell id="NniAMcF-AqxOJK8e0dRN-48" value="重启手机" style="rounded=0;whiteSpace=wrap;html=1;" parent="NniAMcF-AqxOJK8e0dRN-33" vertex="1">
          <mxGeometry x="420" y="300" width="120" height="20" as="geometry" />
        </mxCell>
        <mxCell id="NniAMcF-AqxOJK8e0dRN-68" value="关闭手机" style="rounded=0;whiteSpace=wrap;html=1;" parent="NniAMcF-AqxOJK8e0dRN-33" vertex="1">
          <mxGeometry x="420" y="320" width="120" height="20" as="geometry" />
        </mxCell>
        <mxCell id="NniAMcF-AqxOJK8e0dRN-70" value="" style="verticalLabelPosition=bottom;verticalAlign=top;html=1;shape=mxgraph.basic.smiley" parent="NniAMcF-AqxOJK8e0dRN-33" vertex="1">
          <mxGeometry x="10" y="7.08" width="13.54" height="13.54" as="geometry" />
        </mxCell>
        <mxCell id="NniAMcF-AqxOJK8e0dRN-75" value="压力测试" style="rounded=0;whiteSpace=wrap;html=1;" parent="NniAMcF-AqxOJK8e0dRN-33" vertex="1">
          <mxGeometry x="94" y="56.67" width="60" height="20" as="geometry" />
        </mxCell>
        <mxCell id="PtmkaYNPwoIaMwavgQvr-5" value="&lt;font style=&quot;font-size: 14px&quot;&gt;第一期-第2版2020.12.23&lt;/font&gt;" style="text;html=1;strokeColor=none;fillColor=none;align=center;verticalAlign=middle;whiteSpace=wrap;rounded=0;" vertex="1" parent="1">
          <mxGeometry x="660" y="40" width="140" height="20" as="geometry" />
        </mxCell>
        <mxCell id="PtmkaYNPwoIaMwavgQvr-6" value="" style="group" vertex="1" connectable="0" parent="1">
          <mxGeometry x="470" y="70" width="540" height="340" as="geometry" />
        </mxCell>
        <mxCell id="PtmkaYNPwoIaMwavgQvr-7" value="" style="rounded=0;whiteSpace=wrap;html=1;" vertex="1" parent="PtmkaYNPwoIaMwavgQvr-6">
          <mxGeometry y="28.33333333333333" width="539.9999999999999" height="311.66666666666663" as="geometry" />
        </mxCell>
        <mxCell id="PtmkaYNPwoIaMwavgQvr-8" value="" style="rounded=0;whiteSpace=wrap;html=1;" vertex="1" parent="PtmkaYNPwoIaMwavgQvr-6">
          <mxGeometry width="539.9999999999999" height="28.33333333333333" as="geometry" />
        </mxCell>
        <mxCell id="PtmkaYNPwoIaMwavgQvr-9" value="" style="verticalLabelPosition=bottom;verticalAlign=top;html=1;shape=mxgraph.basic.x" vertex="1" parent="PtmkaYNPwoIaMwavgQvr-6">
          <mxGeometry x="519.2307692307692" y="7.083333333333332" width="13.846153846153843" height="14.166666666666664" as="geometry" />
        </mxCell>
        <mxCell id="PtmkaYNPwoIaMwavgQvr-10" value="" style="verticalLabelPosition=bottom;verticalAlign=top;html=1;shape=mxgraph.basic.rect;fillColor2=none;strokeWidth=1;size=20;indent=5;" vertex="1" parent="PtmkaYNPwoIaMwavgQvr-6">
          <mxGeometry x="498.4615384615384" y="7.083333333333332" width="13.846153846153843" height="14.166666666666664" as="geometry" />
        </mxCell>
        <mxCell id="PtmkaYNPwoIaMwavgQvr-11" value="" style="endArrow=none;html=1;" edge="1" parent="PtmkaYNPwoIaMwavgQvr-6">
          <mxGeometry width="50" height="50" relative="1" as="geometry">
            <mxPoint x="476.30769230769226" y="14.166666666666664" as="sourcePoint" />
            <mxPoint x="490.15384615384613" y="14.166666666666664" as="targetPoint" />
          </mxGeometry>
        </mxCell>
        <mxCell id="PtmkaYNPwoIaMwavgQvr-12" value="&lt;font style=&quot;font-size: 11px&quot;&gt;相册组工具集&lt;/font&gt;" style="text;html=1;strokeColor=none;fillColor=none;align=center;verticalAlign=middle;whiteSpace=wrap;rounded=0;" vertex="1" parent="PtmkaYNPwoIaMwavgQvr-6">
          <mxGeometry x="24.54" width="77.85" height="28.33" as="geometry" />
        </mxCell>
        <mxCell id="PtmkaYNPwoIaMwavgQvr-13" value="File" style="text;html=1;strokeColor=none;fillColor=none;align=center;verticalAlign=middle;whiteSpace=wrap;rounded=0;" vertex="1" parent="PtmkaYNPwoIaMwavgQvr-6">
          <mxGeometry y="28.33333333333333" width="55.38461538461537" height="28.33333333333333" as="geometry" />
        </mxCell>
        <mxCell id="PtmkaYNPwoIaMwavgQvr-14" value="About" style="text;html=1;strokeColor=none;fillColor=none;align=center;verticalAlign=middle;whiteSpace=wrap;rounded=0;" vertex="1" parent="PtmkaYNPwoIaMwavgQvr-6">
          <mxGeometry x="53.99999999999999" y="28.33333333333333" width="55.38461538461537" height="28.33333333333333" as="geometry" />
        </mxCell>
        <mxCell id="PtmkaYNPwoIaMwavgQvr-15" value="内存" style="rounded=0;whiteSpace=wrap;html=1;" vertex="1" parent="PtmkaYNPwoIaMwavgQvr-6">
          <mxGeometry x="10.000000000000002" y="80" width="40" height="20" as="geometry" />
        </mxCell>
        <mxCell id="PtmkaYNPwoIaMwavgQvr-16" value="流畅度" style="rounded=0;whiteSpace=wrap;html=1;" vertex="1" parent="PtmkaYNPwoIaMwavgQvr-6">
          <mxGeometry x="50" y="80" width="44" height="20" as="geometry" />
        </mxCell>
        <mxCell id="PtmkaYNPwoIaMwavgQvr-17" value="" style="rounded=0;whiteSpace=wrap;html=1;" vertex="1" parent="PtmkaYNPwoIaMwavgQvr-6">
          <mxGeometry x="420" y="28.33" width="120" height="311.67" as="geometry" />
        </mxCell>
        <mxCell id="PtmkaYNPwoIaMwavgQvr-18" value="设备列表" style="text;html=1;strokeColor=none;fillColor=none;align=center;verticalAlign=middle;whiteSpace=wrap;rounded=0;" vertex="1" parent="PtmkaYNPwoIaMwavgQvr-6">
          <mxGeometry x="430" y="36.67" width="62" height="20" as="geometry" />
        </mxCell>
        <mxCell id="PtmkaYNPwoIaMwavgQvr-19" value="日志" style="rounded=0;whiteSpace=wrap;html=1;" vertex="1" parent="PtmkaYNPwoIaMwavgQvr-6">
          <mxGeometry x="150" y="80" width="56.31" height="20" as="geometry" />
        </mxCell>
        <mxCell id="PtmkaYNPwoIaMwavgQvr-20" value="" style="rounded=0;whiteSpace=wrap;html=1;" vertex="1" parent="PtmkaYNPwoIaMwavgQvr-6">
          <mxGeometry x="501.53999999999996" y="40.010000000000005" width="17.69" height="13.33" as="geometry" />
        </mxCell>
        <mxCell id="PtmkaYNPwoIaMwavgQvr-21" value="adjj234234" style="text;html=1;strokeColor=none;fillColor=none;align=center;verticalAlign=middle;whiteSpace=wrap;rounded=0;" vertex="1" parent="PtmkaYNPwoIaMwavgQvr-6">
          <mxGeometry x="420" y="60" width="120" height="20" as="geometry" />
        </mxCell>
        <mxCell id="PtmkaYNPwoIaMwavgQvr-22" value="234dfsdfg" style="text;html=1;strokeColor=none;fillColor=none;align=center;verticalAlign=middle;whiteSpace=wrap;rounded=0;" vertex="1" parent="PtmkaYNPwoIaMwavgQvr-6">
          <mxGeometry x="420" y="80" width="120" height="20" as="geometry" />
        </mxCell>
        <mxCell id="PtmkaYNPwoIaMwavgQvr-23" value="重启手机" style="rounded=0;whiteSpace=wrap;html=1;" vertex="1" parent="PtmkaYNPwoIaMwavgQvr-6">
          <mxGeometry x="420" y="300" width="120" height="20" as="geometry" />
        </mxCell>
        <mxCell id="PtmkaYNPwoIaMwavgQvr-24" value="关闭手机" style="rounded=0;whiteSpace=wrap;html=1;" vertex="1" parent="PtmkaYNPwoIaMwavgQvr-6">
          <mxGeometry x="420" y="320" width="120" height="20" as="geometry" />
        </mxCell>
        <mxCell id="PtmkaYNPwoIaMwavgQvr-25" value="" style="verticalLabelPosition=bottom;verticalAlign=top;html=1;shape=mxgraph.basic.smiley" vertex="1" parent="PtmkaYNPwoIaMwavgQvr-6">
          <mxGeometry x="10" y="7.08" width="13.54" height="13.54" as="geometry" />
        </mxCell>
        <mxCell id="PtmkaYNPwoIaMwavgQvr-26" value="压力测试" style="rounded=0;whiteSpace=wrap;html=1;" vertex="1" parent="PtmkaYNPwoIaMwavgQvr-6">
          <mxGeometry x="94" y="80" width="60" height="20" as="geometry" />
        </mxCell>
        <mxCell id="PtmkaYNPwoIaMwavgQvr-27" value="清除相机数据" style="rounded=0;whiteSpace=wrap;html=1;" vertex="1" parent="PtmkaYNPwoIaMwavgQvr-6">
          <mxGeometry x="420" y="280" width="120" height="20" as="geometry" />
        </mxCell>
        <mxCell id="PtmkaYNPwoIaMwavgQvr-28" value="Tips：获取日志成功" style="rounded=0;whiteSpace=wrap;html=1;" vertex="1" parent="PtmkaYNPwoIaMwavgQvr-6">
          <mxGeometry y="53.34" width="420" height="16.66" as="geometry" />
        </mxCell>
      </root>
    </mxGraphModel>
  </diagram>
</mxfile>
